<svg id="visual" viewBox="0 0 900 600" width="900" height="600" xmlns="http://www.w3.org/2000/svg" xmlns:xlink="http://www.w3.org/1999/xlink" version="1.1"><path d="M0 151L21.5 151C43 151 86 151 128.8 144C171.7 137 214.3 123 257.2 116C300 109 343 109 385.8 115C428.7 121 471.3 133 514.2 130C557 127 600 109 642.8 115C685.7 121 728.3 151 771.2 160C814 169 857 157 878.5 151L900 145L900 0L878.5 0C857 0 814 0 771.2 0C728.3 0 685.7 0 642.8 0C600 0 557 0 514.2 0C471.3 0 428.7 0 385.8 0C343 0 300 0 257.2 0C214.3 0 171.7 0 128.8 0C86 0 43 0 21.5 0L0 0Z" fill="#093761"></path><path d="M0 181L21.5 181C43 181 86 181 128.8 178C171.7 175 214.3 169 257.2 162C300 155 343 147 385.8 153C428.7 159 471.3 179 514.2 180C557 181 600 163 642.8 167C685.7 171 728.3 197 771.2 204C814 211 857 199 878.5 193L900 187L900 143L878.5 149C857 155 814 167 771.2 158C728.3 149 685.7 119 642.8 113C600 107 557 125 514.2 128C471.3 131 428.7 119 385.8 113C343 107 300 107 257.2 114C214.3 121 171.7 135 128.8 142C86 149 43 149 21.5 149L0 149Z" fill="#0e477e"></path><path d="M0 271L21.5 271C43 271 86 271 128.8 261C171.7 251 214.3 231 257.2 222C300 213 343 215 385.8 223C428.7 231 471.3 245 514.2 243C557 241 600 223 642.8 228C685.7 233 728.3 261 771.2 271C814 281 857 273 878.5 269L900 265L900 185L878.5 191C857 197 814 209 771.2 202C728.3 195 685.7 169 642.8 165C600 161 557 179 514.2 178C471.3 177 428.7 157 385.8 151C343 145 300 153 257.2 160C214.3 167 171.7 173 128.8 176C86 179 43 179 21.5 179L0 179Z" fill="#30629c"></path><path d="M0 319L21.5 318C43 317 86 315 128.8 307C171.7 299 214.3 285 257.2 280C300 275 343 279 385.8 286C428.7 293 471.3 303 514.2 300C557 297 600 281 642.8 284C685.7 287 728.3 309 771.2 318C814 327 857 323 878.5 321L900 319L900 263L878.5 267C857 271 814 279 771.2 269C728.3 259 685.7 231 642.8 226C600 221 557 239 514.2 241C471.3 243 428.7 229 385.8 221C343 213 300 211 257.2 220C214.3 229 171.7 249 128.8 259C86 269 43 269 21.5 269L0 269Z" fill="#3d6ea8"></path><path d="M0 469L21.5 472C43 475 86 481 128.8 480C171.7 479 214.3 471 257.2 464C300 457 343 451 385.8 449C428.7 447 471.3 449 514.2 449C557 449 600 447 642.8 448C685.7 449 728.3 453 771.2 453C814 453 857 449 878.5 447L900 445L900 317L878.5 319C857 321 814 325 771.2 316C728.3 307 685.7 285 642.8 282C600 279 557 295 514.2 298C471.3 301 428.7 291 385.8 284C343 277 300 273 257.2 278C214.3 283 171.7 297 128.8 305C86 313 43 315 21.5 316L0 317Z" fill="#30629c"></path><path d="M0 553L21.5 553C43 553 86 553 128.8 554C171.7 555 214.3 557 257.2 557C300 557 343 555 385.8 554C428.7 553 471.3 553 514.2 549C557 545 600 537 642.8 534C685.7 531 728.3 533 771.2 537C814 541 857 547 878.5 550L900 553L900 443L878.5 445C857 447 814 451 771.2 451C728.3 451 685.7 447 642.8 446C600 445 557 447 514.2 447C471.3 447 428.7 445 385.8 447C343 449 300 455 257.2 462C214.3 469 171.7 477 128.8 478C86 479 43 473 21.5 470L0 467Z" fill="#0e477e"></path><path d="M0 601L21.5 601C43 601 86 601 128.8 601C171.7 601 214.3 601 257.2 601C300 601 343 601 385.8 601C428.7 601 471.3 601 514.2 601C557 601 600 601 642.8 601C685.7 601 728.3 601 771.2 601C814 601 857 601 878.5 601L900 601L900 551L878.5 548C857 545 814 539 771.2 535C728.3 531 685.7 529 642.8 532C600 535 557 543 514.2 547C471.3 551 428.7 551 385.8 552C343 553 300 555 257.2 555C214.3 555 171.7 553 128.8 552C86 551 43 551 21.5 551L0 551Z" fill="#093761"></path></svg>