<svg id="visual" viewBox="0 0 400 100" width="400" height="100" xmlns="http://www.w3.org/2000/svg" xmlns:xlink="http://www.w3.org/1999/xlink" version="1.1"><rect x="0" y="0" width="400" height="100" fill="#ffffff"></rect><path d="M346 0L346 0L346 4L303 4L303 9L358 9L358 13L305 13L305 17L316 17L316 22L321 22L321 26L328 26L328 30L313 30L313 35L326 35L326 39L308 39L308 43L355 43L355 48L333 48L333 52L340 52L340 57L337 57L337 61L337 61L337 65L318 65L318 70L318 70L318 74L336 74L336 78L350 78L350 83L339 83L339 87L315 87L315 91L312 91L312 96L327 96L327 100L0 100L0 96L0 96L0 91L0 91L0 87L0 87L0 83L0 83L0 78L0 78L0 74L0 74L0 70L0 70L0 65L0 65L0 61L0 61L0 57L0 57L0 52L0 52L0 48L0 48L0 43L0 43L0 39L0 39L0 35L0 35L0 30L0 30L0 26L0 26L0 22L0 22L0 17L0 17L0 13L0 13L0 9L0 9L0 4L0 4L0 0L0 0Z" fill="#ffffff"></path><path d="M297 0L287 0L287 4L296 4L296 9L267 9L267 13L278 13L278 17L252 17L252 22L294 22L294 26L278 26L278 30L277 30L277 35L272 35L272 39L264 39L264 43L271 43L271 48L250 48L250 52L253 52L253 57L278 57L278 61L259 61L259 65L253 65L253 70L279 70L279 74L285 74L285 78L296 78L296 83L273 83L273 87L261 87L261 91L294 91L294 96L267 96L267 100L0 100L0 96L0 96L0 91L0 91L0 87L0 87L0 83L0 83L0 78L0 78L0 74L0 74L0 70L0 70L0 65L0 65L0 61L0 61L0 57L0 57L0 52L0 52L0 48L0 48L0 43L0 43L0 39L0 39L0 35L0 35L0 30L0 30L0 26L0 26L0 22L0 22L0 17L0 17L0 13L0 13L0 9L0 9L0 4L0 4L0 0L0 0Z" fill="#d3d8e6"></path><path d="M198 0L200 0L200 4L200 4L200 9L203 9L203 13L232 13L232 17L212 17L212 22L217 22L217 26L234 26L234 30L245 30L245 35L226 35L226 39L206 39L206 43L216 43L216 48L205 48L205 52L231 52L231 57L222 57L222 61L200 61L200 65L217 65L217 70L242 70L242 74L197 74L197 78L243 78L243 83L214 83L214 87L216 87L216 91L222 91L222 96L196 96L196 100L0 100L0 96L0 96L0 91L0 91L0 87L0 87L0 83L0 83L0 78L0 78L0 74L0 74L0 70L0 70L0 65L0 65L0 61L0 61L0 57L0 57L0 52L0 52L0 48L0 48L0 43L0 43L0 39L0 39L0 35L0 35L0 30L0 30L0 26L0 26L0 22L0 22L0 17L0 17L0 13L0 13L0 9L0 9L0 4L0 4L0 0L0 0Z" fill="#a8b2cc"></path><path d="M171 0L191 0L191 4L177 4L177 9L172 9L172 13L168 13L168 17L179 17L179 22L154 22L154 26L144 26L144 30L167 30L167 35L186 35L186 39L154 39L154 43L173 43L173 48L186 48L186 52L159 52L159 57L150 57L150 61L177 61L177 65L173 65L173 70L148 70L148 74L172 74L172 78L181 78L181 83L167 83L167 87L190 87L190 91L168 91L168 96L157 96L157 100L0 100L0 96L0 96L0 91L0 91L0 87L0 87L0 83L0 83L0 78L0 78L0 74L0 74L0 70L0 70L0 65L0 65L0 61L0 61L0 57L0 57L0 52L0 52L0 48L0 48L0 43L0 43L0 39L0 39L0 35L0 35L0 30L0 30L0 26L0 26L0 22L0 22L0 17L0 17L0 13L0 13L0 9L0 9L0 4L0 4L0 0L0 0Z" fill="#7e8eb4"></path><path d="M92 0L116 0L116 4L108 4L108 9L125 9L125 13L117 13L117 17L133 17L133 22L113 22L113 26L127 26L127 30L90 30L90 35L98 35L98 39L114 39L114 43L125 43L125 48L134 48L134 52L100 52L100 57L113 57L113 61L123 61L123 65L99 65L99 70L123 70L123 74L99 74L99 78L130 78L130 83L128 83L128 87L125 87L125 91L130 91L130 96L97 96L97 100L0 100L0 96L0 96L0 91L0 91L0 87L0 87L0 83L0 83L0 78L0 78L0 74L0 74L0 70L0 70L0 65L0 65L0 61L0 61L0 57L0 57L0 52L0 52L0 48L0 48L0 43L0 43L0 39L0 39L0 35L0 35L0 30L0 30L0 26L0 26L0 22L0 22L0 17L0 17L0 13L0 13L0 9L0 9L0 4L0 4L0 0L0 0Z" fill="#516c9c"></path><path d="M54 0L74 0L74 4L39 4L39 9L50 9L50 13L63 13L63 17L75 17L75 22L64 22L64 26L46 26L46 30L63 30L63 35L57 35L57 39L58 39L58 43L48 43L48 48L61 48L61 52L42 52L42 57L51 57L51 61L62 61L62 65L40 65L40 70L75 70L75 74L74 74L74 78L55 78L55 83L69 83L69 87L76 87L76 91L62 91L62 96L45 96L45 100L0 100L0 96L0 96L0 91L0 91L0 87L0 87L0 83L0 83L0 78L0 78L0 74L0 74L0 70L0 70L0 65L0 65L0 61L0 61L0 57L0 57L0 52L0 52L0 48L0 48L0 43L0 43L0 39L0 39L0 35L0 35L0 30L0 30L0 26L0 26L0 22L0 22L0 17L0 17L0 13L0 13L0 9L0 9L0 4L0 4L0 0L0 0Z" fill="#184c84"></path></svg>