<svg id="visual" viewBox="0 0 5000 450" width="5000" height="450" xmlns="http://www.w3.org/2000/svg" xmlns:xlink="http://www.w3.org/1999/xlink" version="1.1"><path d="M0 114L119 114C238 114 476 114 714.2 108.7C952.3 103.3 1190.7 92.7 1428.8 87.3C1667 82 1905 82 2143 86.5C2381 91 2619 100 2857 97.8C3095 95.7 3333 82.3 3571.2 86.8C3809.3 91.3 4047.7 113.7 4285.8 120.3C4524 127 4762 118 4881 113.5L5000 109L5000 0L4881 0C4762 0 4524 0 4285.8 0C4047.7 0 3809.3 0 3571.2 0C3333 0 3095 0 2857 0C2619 0 2381 0 2143 0C1905 0 1667 0 1428.8 0C1190.7 0 952.3 0 714.2 0C476 0 238 0 119 0L0 0Z" fill="#104a84"></path><path d="M0 136L119 136C238 136 476 136 714.2 133.8C952.3 131.7 1190.7 127.3 1428.8 122.2C1667 117 1905 111 2143 115.5C2381 120 2619 135 2857 135.7C3095 136.3 3333 122.7 3571.2 125.7C3809.3 128.7 4047.7 148.3 4285.8 153.7C4524 159 4762 150 4881 145.5L5000 141L5000 107L4881 111.5C4762 116 4524 125 4285.8 118.3C4047.7 111.7 3809.3 89.3 3571.2 84.8C3333 80.3 3095 93.7 2857 95.8C2619 98 2381 89 2143 84.5C1905 80 1667 80 1428.8 85.3C1190.7 90.7 952.3 101.3 714.2 106.7C476 112 238 112 119 112L0 112Z" fill="#466598"></path><path d="M0 204L119 204C238 204 476 204 714.2 196.5C952.3 189 1190.7 174 1428.8 167.2C1667 160.3 1905 161.7 2143 167.7C2381 173.7 2619 184.3 2857 182.8C3095 181.3 3333 167.7 3571.2 171.3C3809.3 175 4047.7 196 4285.8 203.5C4524 211 4762 205 4881 202L5000 199L5000 139L4881 143.5C4762 148 4524 157 4285.8 151.7C4047.7 146.3 3809.3 126.7 3571.2 123.7C3333 120.7 3095 134.3 2857 133.7C2619 133 2381 118 2143 113.5C1905 109 1667 115 1428.8 120.2C1190.7 125.3 952.3 129.7 714.2 131.8C476 134 238 134 119 134L0 134Z" fill="#6d81ac"></path><path d="M0 240L119 239.2C238 238.3 476 236.7 714.2 230.7C952.3 224.7 1190.7 214.3 1428.8 210.7C1667 207 1905 210 2143 215.2C2381 220.3 2619 227.7 2857 225.3C3095 223 3333 211 3571.2 213.3C3809.3 215.7 4047.7 232.3 4285.8 239.2C4524 246 4762 243 4881 241.5L5000 240L5000 197L4881 200C4762 203 4524 209 4285.8 201.5C4047.7 194 3809.3 173 3571.2 169.3C3333 165.7 3095 179.3 2857 180.8C2619 182.3 2381 171.7 2143 165.7C1905 159.7 1667 158.3 1428.8 165.2C1190.7 172 952.3 187 714.2 194.5C476 202 238 202 119 202L0 202Z" fill="#919fc0"></path><path d="M0 352L119 354.3C238 356.7 476 361.3 714.2 360.7C952.3 360 1190.7 354 1428.8 348.7C1667 343.3 1905 338.7 2143 337.2C2381 335.7 2619 337.3 2857 337.3C3095 337.3 3333 335.7 3571.2 336.3C3809.3 337 4047.7 340 4285.8 340C4524 340 4762 337 4881 335.5L5000 334L5000 238L4881 239.5C4762 241 4524 244 4285.8 237.2C4047.7 230.3 3809.3 213.7 3571.2 211.3C3333 209 3095 221 2857 223.3C2619 225.7 2381 218.3 2143 213.2C1905 208 1667 205 1428.8 208.7C1190.7 212.3 952.3 222.7 714.2 228.7C476 234.7 238 236.3 119 237.2L0 238Z" fill="#b5bed5"></path><path d="M0 415L119 415C238 415 476 415 714.2 415.8C952.3 416.7 1190.7 418.3 1428.8 418.3C1667 418.3 1905 416.7 2143 415.8C2381 415 2619 415 2857 412C3095 409 3333 403 3571.2 400.8C3809.3 398.7 4047.7 400.3 4285.8 403.3C4524 406.3 4762 410.7 4881 412.8L5000 415L5000 332L4881 333.5C4762 335 4524 338 4285.8 338C4047.7 338 3809.3 335 3571.2 334.3C3333 333.7 3095 335.3 2857 335.3C2619 335.3 2381 333.7 2143 335.2C1905 336.7 1667 341.3 1428.8 346.7C1190.7 352 952.3 358 714.2 358.7C476 359.3 238 354.7 119 352.3L0 350Z" fill="#dadeea"></path><path d="M0 451L119 451C238 451 476 451 714.2 451C952.3 451 1190.7 451 1428.8 451C1667 451 1905 451 2143 451C2381 451 2619 451 2857 451C3095 451 3333 451 3571.2 451C3809.3 451 4047.7 451 4285.8 451C4524 451 4762 451 4881 451L5000 451L5000 413L4881 410.8C4762 408.7 4524 404.3 4285.8 401.3C4047.7 398.3 3809.3 396.7 3571.2 398.8C3333 401 3095 407 2857 410C2619 413 2381 413 2143 413.8C1905 414.7 1667 416.3 1428.8 416.3C1190.7 416.3 952.3 414.7 714.2 413.8C476 413 238 413 119 413L0 413Z" fill="#ffffff"></path></svg>